<svg width="46" height="50" viewBox="0 0 46 50" fill="none" xmlns="http://www.w3.org/2000/svg">
<path d="M9.53177 13.0798H32.4473C32.741 13.0798 32.9791 12.5918 32.9791 11.9899C32.9791 11.3879 32.741 10.8999 32.4473 10.8999H9.53177C9.23809 10.8999 9 11.3879 9 11.9899C9 12.5919 9.23809 13.0798 9.53177 13.0798Z" fill="#156A7F"/>
<path d="M9.53177 8.17992H32.4473C32.741 8.17992 32.9791 7.69191 32.9791 7.08996C32.9791 6.48801 32.741 6 32.4473 6H9.53177C9.23809 6 9 6.48801 9 7.08996C9 7.69201 9.23809 8.17992 9.53177 8.17992Z" fill="#156A7F"/>
<path d="M9.53177 18.1799H32.4473C32.741 18.1799 32.9791 17.6919 32.9791 17.09C32.9791 16.488 32.741 16 32.4473 16H9.53177C9.23809 16 9 16.488 9 17.09C9 17.6919 9.23809 18.1799 9.53177 18.1799Z" fill="#156A7F"/>
<path d="M9.53177 23.1799H32.4473C32.741 23.1799 32.9791 22.6919 32.9791 22.09C32.9791 21.488 32.741 21 32.4473 21H9.53177C9.23809 21 9 21.488 9 22.09C9 22.6919 9.23809 23.1799 9.53177 23.1799Z" fill="#156A7F"/>
<path d="M32.4473 26H9.53178C9.2381 26 9 26.488 9 27.09C9 27.6919 9.2381 28.1799 9.53178 28.1799H32.4473C32.741 28.1799 32.9791 27.6919 32.9791 27.09C32.9791 26.488 32.741 26 32.4473 26Z" fill="#156A7F"/>
<path d="M9.53177 33.1799H32.4473C32.741 33.1799 32.9791 32.6919 32.9791 32.09C32.9791 31.488 32.741 31 32.4473 31H9.53177C9.23809 31 9 31.488 9 32.09C8.99995 32.692 9.23804 33.1799 9.53177 33.1799Z" fill="#156A7F"/>
<path d="M9.53177 38.1799H32.4473C32.741 38.1799 32.9791 37.6919 32.9791 37.09C32.9791 36.4879 32.741 36 32.4473 36H9.53177C9.23809 36 9 36.488 9 37.09C8.99995 37.6919 9.23804 38.1799 9.53177 38.1799Z" fill="#156A7F"/>
<path d="M5.11577 0V1.05653V41.8766H0V42.9331V44.9501C0 47.2134 1.78765 49.0481 3.99283 49.0481H34.0639V48.9465C35.7795 48.5401 37.0586 46.9625 37.0586 45.0782V0H6.14518H5.11577ZM4.3048 47.8315C2.47864 47.8315 0.998246 46.3121 0.998246 44.4378V42.9331H29.3225V45.0781C29.3225 46.1473 29.7344 47.1177 30.4042 47.8315H4.3048ZM36.0292 44.9821C36.0292 46.3821 35.067 47.5513 33.7843 47.8315H32.5968C31.3141 47.5513 30.3519 46.3821 30.3519 44.9821V41.8766H6.14523V1.05648L36.0396 1.04592L36.0292 44.9821Z" fill="#156A7F"/>
<path d="M45.2127 6.52524L42.9298 6.5083L42.1426 6.51518L42.1333 8.04583H42.1335L42.1226 9.8559L42.1171 10.7865C42.1153 11.0976 42.2466 11.3486 42.4105 11.3472C42.5383 11.346 42.6407 11.5413 42.6396 11.7836L42.6367 12.4187C42.6356 12.662 42.5306 12.8605 42.4025 12.8616L42.0689 12.8645V12.8676L42.06 14.3614L41.9305 36.0609L41.9053 37.6633L43.4977 42.4058C43.6086 42.7177 43.8507 42.7212 43.9693 42.4126L44.1173 42.0276L44.2066 41.7954L45.69 37.9352L45.7779 37.7063L45.7835 36.7688L45.9174 14.3277H45.9176L45.9265 12.8338H45.9263L45.6486 12.8363C45.5205 12.8374 45.4179 12.6409 45.4196 12.3978L45.4236 11.8209C45.4253 11.5766 45.5316 11.3786 45.6604 11.3801C45.8325 11.3821 45.9746 11.1167 45.9763 10.7899L45.9909 8.01209L45.9934 7.59867L45.9998 6.51906L45.2127 6.52524ZM43.9922 39.8371C43.873 40.1473 43.6293 40.1419 43.5192 39.8266L42.7638 37.6627L44.816 37.6934L43.9922 39.8371ZM44.9998 36.2021L42.717 36.168L42.8471 14.3546L43.9253 14.3451L43.6795 35.5202L43.8369 35.5221L44.0828 14.3438L45.1302 14.3346L44.9998 36.2021ZM43.4219 12.8558L43.4308 11.3594L44.6381 11.3683L44.6293 12.8452L43.4219 12.8558ZM45.1926 9.87842L42.9097 9.86168L42.9206 8.03895L45.2037 8.01902L45.1926 9.87842Z" fill="#A68E54"/>
</svg>
