<svg width="50" height="45" viewBox="0 0 50 45" fill="none" xmlns="http://www.w3.org/2000/svg">
<path d="M28.7987 40.8364H1.07567C0.66696 40.8364 0.335938 40.5051 0.335938 40.0967V4.01757C0.335938 3.60886 0.667267 3.27783 1.07567 3.27783H28.7987C29.2074 3.27783 29.5385 3.60916 29.5385 4.01757V40.097C29.5385 40.5054 29.2074 40.8364 28.7987 40.8364Z" fill="white"/>
<path d="M28.7302 41.1722H1.14353C0.512809 41.1722 0 40.6591 0 40.0287V4.08592C0 3.45519 0.513116 2.94238 1.14353 2.94238H28.7302C29.3607 2.94238 29.8738 3.4555 29.8738 4.08592V40.0287C29.8738 40.6594 29.3607 41.1722 28.7302 41.1722ZM1.14353 3.61333C0.882831 3.61333 0.670951 3.82552 0.670951 4.08592V40.0287C0.670951 40.2894 0.883138 40.5012 1.14353 40.5012H28.7302C28.9909 40.5012 29.2028 40.2894 29.2028 40.0287V4.08592C29.2028 3.82521 28.9909 3.61333 28.7302 3.61333H1.14353Z" fill="#CFCFCF"/>
<path d="M25.9974 8.23895H3.87652C3.40732 8.23895 3.02686 7.85848 3.02686 7.38928V6.84576C3.02686 6.37656 3.40732 5.99609 3.87652 5.99609H25.9974C26.4666 5.99609 26.847 6.37656 26.847 6.84576V7.38928C26.847 7.85848 26.4666 8.23895 25.9974 8.23895Z" fill="#A68E54"/>
<path d="M26.4856 25.6855H3.38828C3.18868 25.6855 3.02686 25.5237 3.02686 25.3241V25.0929C3.02686 24.8933 3.18868 24.7314 3.38828 24.7314H26.4856C26.6852 24.7314 26.847 24.8933 26.847 25.0929V25.3241C26.847 25.5237 26.6852 25.6855 26.4856 25.6855Z" fill="#156A7F"/>
<path d="M26.4856 22.2055H3.38828C3.18868 22.2055 3.02686 22.0437 3.02686 21.8441V21.6129C3.02686 21.4133 3.18868 21.2515 3.38828 21.2515H26.4856C26.6852 21.2515 26.847 21.4133 26.847 21.6129V21.8441C26.847 22.0437 26.6852 22.2055 26.4856 22.2055Z" fill="#156A7F"/>
<path d="M26.4856 18.7251H3.38828C3.18868 18.7251 3.02686 18.5632 3.02686 18.3636V18.1324C3.02686 17.9328 3.18868 17.771 3.38828 17.771H26.4856C26.6852 17.771 26.847 17.9328 26.847 18.1324V18.3636C26.847 18.5632 26.6852 18.7251 26.4856 18.7251Z" fill="#156A7F"/>
<path d="M26.4856 15.2451H3.38828C3.18868 15.2451 3.02686 15.0833 3.02686 14.8837V14.6524C3.02686 14.4528 3.18868 14.291 3.38828 14.291H26.4856C26.6852 14.291 26.847 14.4528 26.847 14.6524V14.8837C26.847 15.0833 26.6852 15.2451 26.4856 15.2451Z" fill="#156A7F"/>
<path d="M26.4856 11.7651H3.38828C3.18868 11.7651 3.02686 11.6033 3.02686 11.4037V11.1725C3.02686 10.9729 3.18868 10.811 3.38828 10.811H26.4856C26.6852 10.811 26.847 10.9729 26.847 11.1725V11.4037C26.847 11.6033 26.6852 11.7651 26.4856 11.7651Z" fill="#156A7F"/>
<path d="M48.9242 40.8364H21.2012C20.7924 40.8364 20.4614 40.5051 20.4614 40.0967V4.01757C20.4614 3.60886 20.7928 3.27783 21.2012 3.27783H48.9242C49.3329 3.27783 49.6639 3.60916 49.6639 4.01757V40.097C49.6643 40.5054 49.3329 40.8364 48.9242 40.8364Z" fill="white"/>
<path d="M48.8567 41.1722H21.27C20.6396 41.1722 20.1265 40.6591 20.1265 40.0287V4.08592C20.1265 3.45519 20.6396 2.94238 21.27 2.94238H48.8567C49.4871 2.94238 50.0002 3.4555 50.0002 4.08592V40.0287C50.0002 40.6594 49.4874 41.1722 48.8567 41.1722ZM21.27 3.61333C21.0093 3.61333 20.7974 3.82552 20.7974 4.08592V40.0287C20.7974 40.2894 21.0096 40.5012 21.27 40.5012H48.8567C49.1174 40.5012 49.3293 40.2894 49.3293 40.0287V4.08592C49.3293 3.82521 49.1174 3.61333 48.8567 3.61333H21.27Z" fill="#CFCFCF"/>
<path d="M46.1238 8.23895H24.003C23.5338 8.23895 23.1533 7.85848 23.1533 7.38928V6.84576C23.1533 6.37656 23.5338 5.99609 24.003 5.99609H46.1238C46.593 5.99609 46.9735 6.37656 46.9735 6.84576V7.38928C46.9735 7.85848 46.593 8.23895 46.1238 8.23895Z" fill="#A68E54"/>
<path d="M46.6116 25.6855H23.5143C23.3147 25.6855 23.1528 25.5237 23.1528 25.3241V25.0929C23.1528 24.8933 23.3147 24.7314 23.5143 24.7314H46.6116C46.8112 24.7314 46.973 24.8933 46.973 25.0929V25.3241C46.9733 25.5237 46.8115 25.6855 46.6116 25.6855Z" fill="#156A7F"/>
<path d="M46.6116 22.2055H23.5143C23.3147 22.2055 23.1528 22.0437 23.1528 21.8441V21.6129C23.1528 21.4133 23.3147 21.2515 23.5143 21.2515H46.6116C46.8112 21.2515 46.973 21.4133 46.973 21.6129V21.8441C46.9733 22.0437 46.8115 22.2055 46.6116 22.2055Z" fill="#156A7F"/>
<path d="M46.6116 18.7251H23.5143C23.3147 18.7251 23.1528 18.5632 23.1528 18.3636V18.1324C23.1528 17.9328 23.3147 17.771 23.5143 17.771H46.6116C46.8112 17.771 46.973 17.9328 46.973 18.1324V18.3636C46.9733 18.5632 46.8115 18.7251 46.6116 18.7251Z" fill="#156A7F"/>
<path d="M46.6116 15.2451H23.5143C23.3147 15.2451 23.1528 15.0833 23.1528 14.8837V14.6524C23.1528 14.4528 23.3147 14.291 23.5143 14.291H46.6116C46.8112 14.291 46.973 14.4528 46.973 14.6524V14.8837C46.9733 15.0833 46.8115 15.2451 46.6116 15.2451Z" fill="#156A7F"/>
<path d="M46.6116 11.7651H23.5143C23.3147 11.7651 23.1528 11.6033 23.1528 11.4037V11.1725C23.1528 10.9729 23.3147 10.811 23.5143 10.811H46.6116C46.8112 10.811 46.973 10.9729 46.973 11.1725V11.4037C46.9733 11.6033 46.8115 11.7651 46.6116 11.7651Z" fill="#156A7F"/>
<path d="M24.4945 30.2784H11.7293C11.4501 30.2784 11.2241 30.0524 11.2241 29.7733V29.6799C11.2241 29.4011 11.4501 29.1748 11.7293 29.1748H24.4945C24.7737 29.1748 24.9997 29.4008 24.9997 29.6799V29.7733C24.9997 30.0521 24.7734 30.2784 24.4945 30.2784Z" fill="#231F20"/>
<path d="M41.1476 43.7768H8.85107C8.44236 43.7768 8.11133 43.4454 8.11133 43.037V1.07567C8.11133 0.666961 8.44266 0.335938 8.85107 0.335938H41.1476C41.5564 0.335938 41.8874 0.667268 41.8874 1.07567V43.0373C41.8874 43.4457 41.556 43.7768 41.1476 43.7768Z" fill="white"/>
<path d="M41.0788 44.1121H8.91893C8.28851 44.1121 7.77539 43.599 7.77539 42.9685V1.14353C7.77539 0.51281 8.28851 0 8.91893 0H41.0792C41.7096 0 42.2227 0.513117 42.2227 1.14353V42.9682C42.2227 43.599 41.7096 44.1121 41.0788 44.1121ZM8.91893 0.670951C8.65822 0.670951 8.44634 0.883138 8.44634 1.14353V42.9682C8.44634 43.2289 8.65853 43.4408 8.91893 43.4408H41.0792C41.3399 43.4408 41.5517 43.2289 41.5517 42.9682V1.14353C41.5517 0.882831 41.3399 0.670951 41.0792 0.670951H8.91893Z" fill="#CFCFCF"/>
<path d="M37.5878 6.07363H12.4116C11.7557 6.07363 11.2241 5.54209 11.2241 4.88619V4.66694C11.2241 4.01103 11.7557 3.47949 12.4116 3.47949H37.5878C38.2437 3.47949 38.7752 4.01103 38.7752 4.66694V4.88619C38.7752 5.54209 38.2434 6.07363 37.5878 6.07363Z" fill="#A68E54"/>
<path d="M24.4945 30.2784H11.7293C11.4501 30.2784 11.2241 30.0524 11.2241 29.7733V29.6799C11.2241 29.4011 11.4501 29.1748 11.7293 29.1748H24.4945C24.7737 29.1748 24.9997 29.4008 24.9997 29.6799V29.7733C24.9997 30.0521 24.7734 30.2784 24.4945 30.2784Z" fill="#156A7F"/>
<path d="M38.2701 26.254H11.7293C11.4501 26.254 11.2241 26.028 11.2241 25.7489V25.6555C11.2241 25.3764 11.4501 25.1504 11.7293 25.1504H38.2701C38.5489 25.1504 38.7752 25.3764 38.7752 25.6555V25.7489C38.7752 26.0277 38.5489 26.254 38.2701 26.254Z" fill="#156A7F"/>
<path d="M38.2701 22.2281H11.7293C11.4501 22.2281 11.2241 22.0021 11.2241 21.723V21.6296C11.2241 21.3505 11.4501 21.1245 11.7293 21.1245H38.2701C38.5489 21.1245 38.7752 21.3505 38.7752 21.6296V21.723C38.7752 22.0021 38.5489 22.2281 38.2701 22.2281Z" fill="#156A7F"/>
<path d="M38.2701 18.2027H11.7293C11.4501 18.2027 11.2241 17.9767 11.2241 17.6976V17.6043C11.2241 17.3251 11.4501 17.0991 11.7293 17.0991H38.2701C38.5489 17.0991 38.7752 17.3251 38.7752 17.6043V17.6976C38.7752 17.9767 38.5489 18.2027 38.2701 18.2027Z" fill="#156A7F"/>
<path d="M38.2701 14.1783H11.7293C11.4501 14.1783 11.2241 13.9523 11.2241 13.6732V13.5798C11.2241 13.3007 11.4501 13.0747 11.7293 13.0747H38.2701C38.5489 13.0747 38.7752 13.3007 38.7752 13.5798V13.6732C38.7752 13.952 38.5489 14.1783 38.2701 14.1783Z" fill="#156A7F"/>
<path d="M38.2701 10.1534H11.7293C11.4501 10.1534 11.2241 9.92741 11.2241 9.64829V9.55494C11.2241 9.27581 11.4501 9.0498 11.7293 9.0498H38.2701C38.5489 9.0498 38.7752 9.27581 38.7752 9.55494V9.64829C38.7752 9.92711 38.5489 10.1534 38.2701 10.1534Z" fill="#156A7F"/>
</svg>
