<svg width="44" height="38" viewBox="0 0 44 38" fill="none" xmlns="http://www.w3.org/2000/svg">
<path d="M35.0322 9.87012H7.36059H1.9311C0.866268 9.87012 0 10.7364 0 11.8012V35.2485C0 36.3133 0.866268 37.1796 1.9311 37.1796H35.0322C36.097 37.1796 36.9633 36.3133 36.9633 35.2485V31.8407V11.8012C36.9633 10.7364 36.097 9.87012 35.0322 9.87012ZM1.47212 11.8012C1.47212 11.548 1.67791 11.3422 1.9311 11.3422H35.0322C35.2854 11.3422 35.4912 11.548 35.4912 11.8012V28.249V35.2485C35.4912 35.5016 35.2854 35.7074 35.0322 35.7074H1.9311C1.67788 35.7074 1.47212 35.5016 1.47212 35.2485V32.3006V11.8012Z" fill="#0F99BA"/>
<path d="M43.0477 6.75277L10.6375 0.0251743C9.99111 -0.108943 9.35843 0.306171 9.22428 0.952626L7.66846 8.39762H35.0322C36.909 8.39762 38.4354 9.92437 38.4354 11.8008V32.0085C38.8175 31.874 39.1217 31.5488 39.2101 31.1232L43.9748 8.16602C44.109 7.51957 43.6938 6.88689 43.0477 6.75277Z" fill="#A68E54"/>
<path d="M34.0192 26.7768L27.0433 19.8006C26.634 19.3913 25.9706 19.3913 25.5613 19.8006L19.2551 26.1068C18.8458 26.5161 18.1821 26.5161 17.7728 26.1068L14.8417 23.1757C14.4694 22.8034 13.8789 22.7651 13.4615 23.086L2.94434 31.169V34.2352H34.0191L34.0192 26.7768Z" fill="#4BB3CB"/>
<path d="M7.79106 20.5322C9.52489 20.5322 10.9306 19.1268 10.9306 17.3926C10.9306 15.6588 9.52486 14.2534 7.79106 14.2534C6.05725 14.2534 4.65186 15.6588 4.65186 17.3926C4.65186 19.1268 6.05725 20.5322 7.79106 20.5322Z" fill="#4BB3CB"/>
</svg>
