<svg width="17" height="18" viewBox="0 0 17 18" fill="none" xmlns="http://www.w3.org/2000/svg">
<path d="M14.0898 14.3131C14.0898 14.7736 13.9104 15.2066 13.5848 15.5322C13.2592 15.8578 12.8265 16.037 12.366 16.037C12.3659 16.037 12.3659 16.037 12.3659 16.037L2.72647 16.0372C1.77599 16.037 1.00261 15.2638 1.00261 14.3132V4.67386C1.00261 3.72326 1.77599 2.95 2.72647 2.94987L9.73946 2.95L10.7421 1.94739L2.72634 1.94727C1.9982 1.94739 1.31354 2.231 0.798578 2.74597C0.283613 3.26093 0 3.94559 0 4.67386V14.3132C0 15.0415 0.283613 15.7261 0.798578 16.2411C1.31354 16.756 1.9982 17.0398 2.72647 17.0398L12.3658 17.0397C12.3659 17.0397 12.3659 17.0397 12.366 17.0397C13.0943 17.0397 13.7788 16.756 14.2938 16.2412C14.8088 15.7262 15.0924 15.0415 15.0924 14.3131V6.21788L14.0898 7.22048V14.3131Z" fill="#A68E54"/>
<path d="M16.5368 1.11825L15.8819 0.463299C15.264 -0.154433 14.2623 -0.154433 13.6444 0.463299L13.2817 0.825993L12.5728 1.53496L15.4652 4.42749L16.1741 3.71852L16.5368 3.35582C17.1547 2.73797 17.1547 1.73611 16.5368 1.11825Z" fill="#A68E54"/>
<path d="M11.0543 3.76221L13.2377 5.94565L13.5921 6.30019L14.7556 5.13667L14.4012 4.78212L12.2177 2.59869L11.8632 2.24414L11.4087 2.6987L10.6997 3.40767L11.0543 3.76221Z" fill="#A68E54"/>
<path d="M9.99123 4.11621L4.38264 9.7248C4.10705 10.0004 3.95215 10.3742 3.95215 10.7639V12.3199C3.95215 12.7218 4.27812 13.0477 4.68017 13.0477H6.23609C6.62573 13.0477 6.99945 12.8929 7.27517 12.6173L12.8836 7.00874L12.5292 6.65419L10.3458 4.47076L9.99123 4.11621Z" fill="#A68E54"/>
</svg>
