<svg width="40" height="50" viewBox="0 0 40 50" fill="none" xmlns="http://www.w3.org/2000/svg">
<path d="M1.14298 8.8521e-05C0.842333 8.8521e-05 0.547446 0.121124 0.335002 0.332608C0.121939 0.543741 0 0.836181 0 1.13486V35.0544C0 35.3531 0.121939 35.6455 0.335002 35.8567C0.547446 36.0681 0.842333 36.1892 1.14298 36.1892H12.8968V15.3234C12.8968 15.1239 12.9787 14.9292 13.1201 14.7886C13.2615 14.6473 13.4586 14.5669 13.6595 14.5669H27.8653V1.13477C27.8653 0.836092 27.7439 0.543655 27.5309 0.332522C27.318 0.121126 27.0241 0 26.7218 0H1.14298V8.8521e-05ZM12.2789 28.7569H3.29247V26.4885H12.2789V28.7569ZM12.2789 23.6223H3.1367V21.354H12.2789V23.6223ZM12.2789 18.488H3.29247V16.2188H12.2789V18.488ZM24.5734 13.3529H3.29247V11.0837H24.5733V13.3529H24.5734ZM24.5734 8.21861H5.4541V5.94942H24.5734V8.21861Z" fill="#EEEEEE"/>
<path d="M24.5734 5.94922H5.4541V8.21841H24.5734V5.94922Z" fill="#A68E54"/>
<path d="M24.5733 11.0835H3.29248V13.3527H24.5733V11.0835Z" fill="#A68E54"/>
<path d="M12.2789 16.2188H3.29248V18.4879H12.2789V16.2188Z" fill="#A68E54"/>
<path d="M12.279 21.354H3.13672V23.6223H12.279V21.354Z" fill="#A68E54"/>
<path d="M12.2789 26.4888H3.29248V28.7571H12.2789V26.4888Z" fill="#A68E54"/>
<path d="M14.4219 48.4871H38.476V16.0806H14.4219V48.4871ZM17.9697 20.1384H37.0896V22.4072H17.9697V20.1384ZM15.8093 25.2735H37.0895V27.5425H15.8093V25.2735ZM15.8093 30.4087H37.0895V32.677H15.8093V30.4087ZM15.8093 35.543H37.0895V37.8122H15.8093V35.543ZM15.8093 40.6781H31.8004V42.9464H15.8093V40.6781Z" fill="white"/>
<path d="M27.8655 14.5669H13.6597C13.4588 14.5669 13.2617 14.6473 13.1203 14.7886C12.9789 14.9292 12.897 15.1239 12.897 15.3234V36.1891V49.2435C12.897 49.4424 12.9789 49.6377 13.1203 49.7783C13.2617 49.9195 13.4588 50 13.6597 50H39.238C39.439 50 39.6353 49.9195 39.778 49.7783C39.92 49.6377 40.0002 49.4424 40.0002 49.2435V15.3234C40.0002 15.1242 39.92 14.9292 39.778 14.7886C39.6354 14.6473 39.439 14.5669 39.238 14.5669H27.8655ZM38.4758 48.4867H14.4218V16.0802H38.4759L38.4758 48.4867Z" fill="#EEEEEE"/>
<path d="M37.0891 20.1377H17.9692V22.4065H37.0891V20.1377Z" fill="#0F99BA"/>
<path d="M37.0895 25.2734H15.8091V27.5424H37.0895V25.2734Z" fill="#0F99BA"/>
<path d="M37.0895 30.4082H15.8091V32.6765H37.0895V30.4082Z" fill="#0F99BA"/>
<path d="M37.0895 35.5425H15.8091V37.8117H37.0895V35.5425Z" fill="#0F99BA"/>
<path d="M31.8002 40.6777H15.8091V42.946H31.8002V40.6777Z" fill="#0F99BA"/>
</svg>
