<svg width="29" height="34" viewBox="0 0 29 34" fill="none" xmlns="http://www.w3.org/2000/svg">
<g opacity="0.8">
<path d="M28.6524 5.10288C28.6523 5.0953 28.6519 5.08774 28.6513 5.0802C28.6511 5.07789 28.6509 5.07557 28.6507 5.07328C28.6497 5.06438 28.6484 5.05554 28.6466 5.0468C28.6462 5.04482 28.6457 5.0429 28.6453 5.04093C28.6437 5.0342 28.6421 5.02752 28.6401 5.0209C28.6392 5.01778 28.6382 5.01469 28.6372 5.01163C28.6352 5.00576 28.6331 4.99998 28.6308 4.99425C28.6298 4.99171 28.6289 4.98915 28.6278 4.98665C28.6243 4.97867 28.6206 4.97083 28.6165 4.96314C28.6157 4.96167 28.6148 4.96028 28.614 4.95883C28.6104 4.9524 28.6065 4.94608 28.6024 4.93987C28.6011 4.9379 28.5998 4.93594 28.5984 4.93398C28.5944 4.92811 28.5901 4.92238 28.5856 4.91676C28.5844 4.91531 28.5833 4.91382 28.5821 4.91239C28.5763 4.90543 28.5702 4.8986 28.5637 4.8921L23.7605 0.088889C23.754 0.0823813 23.7472 0.0763438 23.7402 0.070532C23.7388 0.069347 23.7374 0.0682559 23.7359 0.0670897C23.7303 0.0625381 23.7245 0.0582122 23.7185 0.0540932C23.7167 0.0527954 23.7148 0.0514789 23.7129 0.0502187C23.7065 0.0460244 23.7 0.0420933 23.6934 0.0384069C23.6921 0.0376921 23.6909 0.0369021 23.6896 0.0362062C23.6818 0.0320119 23.6739 0.0282125 23.6658 0.024733C23.6635 0.0237549 23.6612 0.0229276 23.6589 0.0220059C23.6529 0.0195796 23.6468 0.0173412 23.6407 0.0153287C23.6378 0.0143883 23.6349 0.0134669 23.632 0.0126017C23.625 0.0105327 23.618 0.00872709 23.6109 0.00716599C23.6093 0.00680862 23.6077 0.00633832 23.606 0.00601858C23.5971 0.00421296 23.5881 0.00289647 23.5791 0.00189962C23.577 0.00167392 23.5749 0.00154213 23.5729 0.00135404C23.5651 0.000658128 23.5572 0.000244274 23.5493 0.00016904C23.5481 0.000150232 23.547 0 23.5458 0H7.76869C7.04328 0 6.45313 0.590155 6.45313 1.31556V3.33571H1.31556C0.590155 3.33571 0 3.92588 0 4.65127V32.6844C0 33.4098 0.590155 34 1.31556 34H20.884C21.6094 34 22.1995 33.4098 22.1995 32.6844V30.6643H27.3371C28.0625 30.6643 28.6526 30.0741 28.6526 29.3487V5.10685C28.6526 5.10552 28.6525 5.10422 28.6524 5.10288ZM23.8494 1.0365L27.6161 4.80319H24.5578C24.1672 4.80319 23.8494 4.48542 23.8494 4.0948V1.0365ZM27.3371 30.0571H7.76869C7.3781 30.0571 7.06031 29.7393 7.06031 29.3487V1.31558C7.06031 0.924984 7.3781 0.607195 7.76869 0.607195H23.2422V4.0948C23.2422 4.82021 23.8324 5.41037 24.5578 5.41037H28.0454V29.3487C28.0455 29.7393 27.7277 30.0571 27.3371 30.0571Z" fill="#156A7F"/>
<path d="M24.7712 8.85645H10.3343C10.1667 8.85645 10.0308 8.99238 10.0308 9.16003C10.0308 9.32769 10.1667 9.46362 10.3343 9.46362H24.7712C24.9388 9.46362 25.0747 9.32769 25.0747 9.16003C25.0747 8.99238 24.9388 8.85645 24.7712 8.85645Z" fill="#A68E54"/>
<path d="M24.7712 12.9097H10.3343C10.1667 12.9097 10.0308 13.0456 10.0308 13.2133C10.0308 13.3809 10.1667 13.5168 10.3343 13.5168H24.7712C24.9388 13.5168 25.0747 13.3809 25.0747 13.2133C25.0747 13.0456 24.9388 12.9097 24.7712 12.9097Z" fill="#A68E54"/>
<path d="M24.7712 16.9629H10.3343C10.1667 16.9629 10.0308 17.0988 10.0308 17.2665C10.0308 17.4341 10.1667 17.5701 10.3343 17.5701H24.7712C24.9388 17.5701 25.0747 17.4341 25.0747 17.2665C25.0747 17.0988 24.9388 16.9629 24.7712 16.9629Z" fill="#A68E54"/>
<path d="M24.7712 21.0161H10.3343C10.1667 21.0161 10.0308 21.152 10.0308 21.3197C10.0308 21.4874 10.1667 21.6233 10.3343 21.6233H24.7712C24.9388 21.6233 25.0747 21.4874 25.0747 21.3197C25.0747 21.152 24.9388 21.0161 24.7712 21.0161Z" fill="#A68E54"/>
<path d="M17.9683 25.0693H10.3343C10.1667 25.0693 10.0308 25.2053 10.0308 25.3729C10.0308 25.5406 10.1667 25.6765 10.3343 25.6765H17.9683C18.1359 25.6765 18.2718 25.5406 18.2718 25.3729C18.2718 25.2053 18.1359 25.0693 17.9683 25.0693Z" fill="#A68E54"/>
</g>
</svg>
