<svg width="38" height="39" viewBox="0 0 38 39" fill="none" xmlns="http://www.w3.org/2000/svg">
<path d="M1.02867 0.28271C0.7712 0.43813 0.442922 0.763322 0.285794 1.0176C-1.78191e-05 1.46969 0 1.76637 0 19.5002C0 37.2336 -1.78191e-05 37.5304 0.285794 37.9825C0.442922 38.2368 0.7712 38.562 1.02867 38.7173C1.48583 39 1.78577 39 19 39C36.2142 39 36.5142 39 36.9712 38.7173C37.2284 38.562 37.5571 38.2368 37.7142 37.9825C38 37.5304 38 37.2336 38 19.5002C38 1.76637 38 1.46969 37.7142 1.0176C37.5571 0.763322 37.2284 0.43813 36.9712 0.28271C36.5142 6.06016e-06 36.2142 0 19 0C1.78577 0 1.48583 6.06016e-06 1.02867 0.28271ZM36.3142 1.65344C36.5571 1.86532 36.5712 2.61419 36.5712 19.4718C36.5712 35.6511 36.5571 37.0923 36.3284 37.3326C36.1142 37.5728 35.3855 37.5868 19.0283 37.5868C3.34283 37.5868 1.92869 37.5728 1.68584 37.3466C1.44289 37.1348 1.42875 36.3859 1.42875 19.5282C1.42875 3.34899 1.44287 1.90772 1.67121 1.66751C1.88581 1.4272 2.61408 1.41322 18.9713 1.41322C34.6572 1.41322 36.0713 1.4272 36.3142 1.65344Z" fill="#A68E54"/>
<path d="M4.23459 4.2716C4.01461 4.51455 4 5.49997 4 16.5143V28.5001L4.30811 28.7429C4.60121 28.9859 5.52582 29 18.9634 29C32.8704 29 33.3253 28.9859 33.6479 28.7288L34 28.4575V4.54288L33.6479 4.2716C33.3253 4.01452 32.8704 4 18.8898 4C5.05606 4 4.46947 4.01452 4.23459 4.2716ZM32.4597 16.5002V27.4288H5.4668V5.57158H32.4597V16.5002Z" fill="#0F99BA"/>
<path d="M16.9335 8.23334C14.3908 8.84217 12.0697 10.53 10.9905 12.6046C10.2367 14.0297 10 14.9428 10 16.4922C10 18.0415 10.2367 18.9547 10.9758 20.3656C12.3948 23.0633 15.7658 25 19.0476 25C21.6053 25 24.3106 23.8102 25.9814 21.9429C26.7058 21.1266 27.6221 19.3835 27.8734 18.3599C28.0804 17.5296 28.0213 15.2055 27.785 14.2787C27.7109 13.9744 27.3857 13.2413 27.0753 12.6325C25.2717 9.21544 20.8663 7.30652 16.9335 8.23334ZM21.4721 9.82427C24.6655 10.8479 26.6907 13.6009 26.5135 16.7137C26.4247 18.4704 26.1587 19.1758 25.0501 20.7114C23.7784 22.4686 20.8513 23.7549 18.5746 23.5612C16.5048 23.3812 14.8638 22.6481 13.5038 21.2786C11.316 19.0514 10.8279 15.8007 12.3358 13.2551C13.5629 11.1384 15.0561 10.1285 17.9092 9.45061C18.5598 9.29854 20.4523 9.49222 21.4721 9.82427Z" fill="#0F99BA"/>
<path d="M16.9258 13.0368C16.7487 13.0631 16.4763 13.2885 16.3132 13.514C16.0134 13.925 16 14.031 16 16.9878C16 19.7191 16.0274 20.0903 16.2449 20.4086C16.5446 20.8595 17.0889 21.0714 17.6332 20.9785C18.1505 20.8857 22.4791 18.1281 22.7922 17.7038C23.0781 17.3059 23.0646 16.7359 22.7788 16.2982C22.5882 16.0197 20.764 14.7335 20.0835 14.4022C20.0156 14.3623 19.5119 14.0441 18.9675 13.6995C17.9873 13.0766 17.4974 12.9173 16.9258 13.0368ZM19.5662 15.6753C21.186 16.736 21.4992 16.9878 21.3496 17.1335C20.9545 17.5048 17.6472 19.5602 17.538 19.4936C17.4157 19.4143 17.3883 14.4023 17.511 14.4023C17.5518 14.4023 18.4772 14.9726 19.5662 15.6753Z" fill="#0F99BA"/>
<path d="M21.8883 31.1856C21.7665 31.2988 21.6308 31.67 21.5901 31.9933L21.4952 32.6073H14.4711C7.84039 32.6073 7.43382 32.6233 7.23058 32.8981C7.09494 33.0597 7 33.3505 7 33.5281C7 34.3036 7 34.3036 14.3762 34.3361C18.1866 34.3682 21.3461 34.3847 21.4003 34.3847C21.441 34.3847 21.536 34.6269 21.5763 34.9016C21.685 35.4992 21.9967 36 22.2815 36C22.3764 36 22.58 35.8549 22.7291 35.6768C22.9731 35.386 23 35.1439 23 33.5281C23 32.1389 22.9458 31.622 22.7833 31.3473C22.5528 30.9434 22.2138 30.8949 21.8883 31.1856Z" fill="#0F99BA"/>
<path d="M24.2803 33.1769C23.9754 33.326 23.9447 33.3912 24.0669 33.6147C24.2802 33.9686 24.7372 34.015 27.8913 33.9966C30.68 33.9778 31 33.9314 31 33.5031C31 33.0652 30.5734 33 27.4801 33C24.9203 33 24.6003 33.0187 24.2803 33.1769Z" fill="#0F99BA"/>
</svg>
