<svg width="41" height="38" viewBox="0 0 41 38" fill="none" xmlns="http://www.w3.org/2000/svg">
<path d="M19.4858 0.0200029C24.0911 -0.186722 28.7324 1.20989 32.3021 4.16287C34.3605 5.86513 36.0152 7.87994 37.1903 10.279C37.4411 10.7919 37.2294 11.3552 36.6151 11.418C36.1067 11.4699 35.9277 11.2835 35.6943 10.87C35.4988 10.5238 35.3001 10.1796 35.0984 9.83738C33.1053 6.46057 29.8388 3.87702 26.1608 2.56102C25.8535 2.4509 25.5391 2.35249 25.2177 2.26576C22.7518 1.6001 20.2537 1.45799 17.7232 1.83945C13.924 2.41216 10.4082 4.39927 7.84152 7.2375C7.28069 7.85719 6.73668 8.56339 6.25253 9.27308C6.02965 9.59947 5.74082 9.72492 5.38606 9.64942C4.81881 9.52875 4.55224 8.93182 4.84799 8.4348C5.23474 7.78398 5.67292 7.22018 6.18626 6.61731C9.52745 2.69405 14.2999 0.252943 19.4858 0.0200029Z" fill="#0F99BA"/>
<path d="M20.4551 7.35107H20.5194C21.5423 7.35107 22.3716 8.18029 22.3716 9.20319V28.559C22.3716 29.5819 21.5423 30.4111 20.5194 30.4111H20.4551C19.4323 30.4111 18.603 29.5819 18.603 28.559V9.20317C18.603 8.18029 19.4322 7.35107 20.4551 7.35107Z" fill="#A68E54"/>
<path d="M9.93973 11.224C10.9956 9.85807 13.1014 10.4328 13.2963 12.1528C13.3147 12.3157 13.3233 12.5519 13.322 12.8615C13.3005 17.5479 13.2972 21.6321 13.3121 25.114C13.317 26.2565 12.7651 27.1635 11.5347 27.2451C10.6544 27.3039 9.85763 26.7589 9.62272 25.9305C9.57094 25.7479 9.54473 25.4239 9.54407 24.9587C9.53747 20.7903 9.53401 16.6219 9.53369 12.4535C9.53369 11.984 9.66905 11.5742 9.93973 11.224Z" fill="#A68E54"/>
<path d="M0.0298925 15.433C0.040783 14.9983 0.202483 14.6566 0.551637 14.3761C1.23445 13.8269 1.93507 13.301 2.65348 12.7985C3.24398 12.3856 3.98334 12.6754 3.98285 13.4424C3.98153 17.0609 3.97527 20.6794 3.96407 24.2979C3.96375 24.4215 3.96044 24.5163 3.95417 24.5822C3.92401 24.8958 3.53775 25.0901 3.26427 25.1163C3.00743 25.1407 2.78801 25.0868 2.60602 24.9546C1.85528 24.4091 1.08824 23.8285 0.407234 23.199C-0.105131 22.7262 0.0115949 22.1896 0.0111076 21.5447C0.010596 19.5101 -0.0215389 17.4666 0.0298925 15.433Z" fill="#0F99BA"/>
<path d="M38.208 12.7211C38.3072 12.7716 38.402 12.8296 38.4924 12.8952C39.1666 13.3842 39.8301 13.8865 40.4829 14.4021C40.9468 14.7686 41.0037 15.1514 40.9997 15.7691C40.9859 17.9942 40.9829 20.2191 40.9908 22.4435C40.9923 22.7966 40.6342 23.2022 40.3682 23.4336C39.8865 23.853 39.3882 24.2515 38.8732 24.629C38.5309 24.8802 38.1986 25.175 37.7609 25.1542C37.3475 25.1349 37.0364 24.852 37.0339 24.4217C37.0234 22.4818 37.0265 18.9205 37.0433 13.7379C37.0443 13.4308 37.0369 13.2295 37.1368 13.0089C37.3198 12.6054 37.843 12.5357 38.208 12.7211Z" fill="#0F99BA"/>
<path d="M29.5365 13.7275H29.6423C30.659 13.7275 31.4831 14.5517 31.4831 15.5683V25.401C31.4831 26.4176 30.659 27.2417 29.6423 27.2417H29.5365C28.5199 27.2417 27.6958 26.4176 27.6958 25.401V15.5683C27.6958 14.5517 28.5199 13.7275 29.5365 13.7275Z" fill="#A68E54"/>
<path d="M6.69785 29.1598C10.1597 33.8561 15.6236 36.4218 21.4637 36.1271C24.9231 35.9525 28.2332 34.683 30.97 32.595C33.0017 31.0445 34.5477 29.0693 35.7672 26.8121C35.921 26.5278 36.1025 26.3013 36.4111 26.2761C36.6238 26.2586 36.8341 26.3286 37.0422 26.4862C37.3641 26.7296 37.3345 27.0733 37.193 27.4145C37.0446 27.7736 36.8968 28.0396 36.6717 28.4511C35.7895 30.0658 34.6653 31.4506 33.3281 32.7255C31.2015 34.7522 28.4681 36.2641 25.6753 37.0529C17.8114 39.2749 9.39611 36.2379 4.89371 29.4422C4.72161 29.1827 4.68681 28.9221 4.78936 28.6603C4.99509 28.1336 5.72455 27.8636 6.11179 28.3749C6.30865 28.6351 6.50399 28.8967 6.69785 29.1598Z" fill="#0F99BA"/>
</svg>
